<mxfile host="Electron" modified="2023-05-03T10:01:27.629Z" agent="Mozilla/5.0 (Windows NT 10.0; Win64; x64) AppleWebKit/537.36 (KHTML, like Gecko) draw.io/21.2.1 Chrome/112.0.5615.87 Electron/24.1.2 Safari/537.36" etag="YwzwnW7o9DCCz-8XjjE5" version="21.2.1" type="device">
  <diagram name="Страница 1" id="isuzq9MQI8AUc7BuFoc3">
    <mxGraphModel dx="2385" dy="2088" grid="1" gridSize="10" guides="1" tooltips="1" connect="1" arrows="1" fold="1" page="1" pageScale="1" pageWidth="827" pageHeight="1169" math="0" shadow="0">
      <root>
        <mxCell id="0" />
        <mxCell id="1" parent="0" />
        <mxCell id="Xs1KsuPRkLYYs0-YTLQu-1" value="&lt;p style=&quot;margin:0px;margin-top:6px;text-align:center;&quot;&gt;&amp;lt;&amp;lt;component&amp;gt;&amp;gt;&lt;/p&gt;&lt;p style=&quot;margin:0px;margin-top:6px;text-align:center;&quot;&gt;&lt;b&gt;Suppliers Managment UI&lt;/b&gt;&lt;/p&gt;" style="align=left;overflow=fill;html=1;dropTarget=0;whiteSpace=wrap;" vertex="1" parent="1">
          <mxGeometry x="140" y="240" width="180" height="60" as="geometry" />
        </mxCell>
        <mxCell id="Xs1KsuPRkLYYs0-YTLQu-2" value="" style="shape=component;jettyWidth=8;jettyHeight=4;" vertex="1" parent="Xs1KsuPRkLYYs0-YTLQu-1">
          <mxGeometry x="1" width="20" height="20" relative="1" as="geometry">
            <mxPoint x="-24" y="4" as="offset" />
          </mxGeometry>
        </mxCell>
        <mxCell id="Xs1KsuPRkLYYs0-YTLQu-3" value="" style="shape=providedRequiredInterface;html=1;verticalLabelPosition=bottom;sketch=0;" vertex="1" parent="1">
          <mxGeometry x="460" y="465" width="50" height="50" as="geometry" />
        </mxCell>
        <mxCell id="Xs1KsuPRkLYYs0-YTLQu-4" value="" style="endArrow=none;html=1;rounded=0;exitX=1;exitY=0.5;exitDx=0;exitDy=0;entryX=0.48;entryY=0.04;entryDx=0;entryDy=0;entryPerimeter=0;" edge="1" parent="1" source="Xs1KsuPRkLYYs0-YTLQu-1" target="Xs1KsuPRkLYYs0-YTLQu-3">
          <mxGeometry width="50" height="50" relative="1" as="geometry">
            <mxPoint x="420" y="340" as="sourcePoint" />
            <mxPoint x="480" y="270" as="targetPoint" />
            <Array as="points">
              <mxPoint x="484" y="270" />
            </Array>
          </mxGeometry>
        </mxCell>
        <mxCell id="Xs1KsuPRkLYYs0-YTLQu-7" value="&lt;p style=&quot;margin:0px;margin-top:6px;text-align:center;&quot;&gt;&amp;lt;&amp;lt;component&amp;gt;&amp;gt;&lt;/p&gt;&lt;p style=&quot;margin:0px;margin-top:6px;text-align:center;&quot;&gt;&lt;b&gt;Suppliers&lt;/b&gt;&lt;/p&gt;" style="align=left;overflow=fill;html=1;dropTarget=0;whiteSpace=wrap;" vertex="1" parent="1">
          <mxGeometry x="-270" y="390" width="530" height="270" as="geometry" />
        </mxCell>
        <mxCell id="Xs1KsuPRkLYYs0-YTLQu-8" value="" style="shape=component;jettyWidth=8;jettyHeight=4;" vertex="1" parent="Xs1KsuPRkLYYs0-YTLQu-7">
          <mxGeometry x="1" width="20" height="20" relative="1" as="geometry">
            <mxPoint x="-24" y="4" as="offset" />
          </mxGeometry>
        </mxCell>
        <mxCell id="Xs1KsuPRkLYYs0-YTLQu-15" style="edgeStyle=orthogonalEdgeStyle;rounded=0;orthogonalLoop=1;jettySize=auto;html=1;entryX=0;entryY=0.5;entryDx=0;entryDy=0;" edge="1" parent="1" source="Xs1KsuPRkLYYs0-YTLQu-11" target="Xs1KsuPRkLYYs0-YTLQu-14">
          <mxGeometry relative="1" as="geometry" />
        </mxCell>
        <mxCell id="Xs1KsuPRkLYYs0-YTLQu-11" value="&lt;p style=&quot;margin:0px;margin-top:6px;text-align:center;&quot;&gt;&amp;lt;&amp;lt;component&amp;gt;&amp;gt;&lt;/p&gt;&lt;p style=&quot;margin:0px;margin-top:6px;text-align:center;&quot;&gt;&lt;b&gt;Legal Suppliers&lt;/b&gt;&lt;/p&gt;" style="align=left;overflow=fill;html=1;dropTarget=0;whiteSpace=wrap;" vertex="1" parent="1">
          <mxGeometry x="-260" y="460" width="180" height="60" as="geometry" />
        </mxCell>
        <mxCell id="Xs1KsuPRkLYYs0-YTLQu-12" value="" style="shape=component;jettyWidth=8;jettyHeight=4;" vertex="1" parent="Xs1KsuPRkLYYs0-YTLQu-11">
          <mxGeometry x="1" width="20" height="20" relative="1" as="geometry">
            <mxPoint x="-24" y="4" as="offset" />
          </mxGeometry>
        </mxCell>
        <mxCell id="Xs1KsuPRkLYYs0-YTLQu-14" value="" style="ellipse;whiteSpace=wrap;html=1;aspect=fixed;" vertex="1" parent="1">
          <mxGeometry y="475" width="30" height="30" as="geometry" />
        </mxCell>
        <mxCell id="Xs1KsuPRkLYYs0-YTLQu-16" value="&lt;b&gt;Legal Suppliers Service&lt;/b&gt;" style="text;html=1;strokeColor=none;fillColor=none;align=center;verticalAlign=middle;whiteSpace=wrap;rounded=0;" vertex="1" parent="1">
          <mxGeometry x="-62.5" y="505" width="155" height="35" as="geometry" />
        </mxCell>
        <mxCell id="Xs1KsuPRkLYYs0-YTLQu-17" value="" style="whiteSpace=wrap;html=1;aspect=fixed;" vertex="1" parent="1">
          <mxGeometry x="250" y="477.5" width="25" height="25" as="geometry" />
        </mxCell>
        <mxCell id="Xs1KsuPRkLYYs0-YTLQu-19" value="" style="endArrow=open;endSize=12;dashed=1;html=1;rounded=0;entryX=0;entryY=0.5;entryDx=0;entryDy=0;" edge="1" parent="1" source="Xs1KsuPRkLYYs0-YTLQu-14" target="Xs1KsuPRkLYYs0-YTLQu-17">
          <mxGeometry x="0.0026" width="160" relative="1" as="geometry">
            <mxPoint x="60" y="490" as="sourcePoint" />
            <mxPoint x="220" y="490" as="targetPoint" />
            <Array as="points" />
            <mxPoint as="offset" />
          </mxGeometry>
        </mxCell>
        <mxCell id="Xs1KsuPRkLYYs0-YTLQu-20" value="Legal Suppliers Port" style="text;html=1;strokeColor=none;fillColor=none;align=center;verticalAlign=middle;whiteSpace=wrap;rounded=0;" vertex="1" parent="1">
          <mxGeometry x="202.5" y="502.5" width="120" height="27.5" as="geometry" />
        </mxCell>
        <mxCell id="Xs1KsuPRkLYYs0-YTLQu-22" value="&lt;p style=&quot;margin:0px;margin-top:6px;text-align:center;&quot;&gt;&amp;lt;&amp;lt;component&amp;gt;&amp;gt;&lt;/p&gt;&lt;p style=&quot;margin:0px;margin-top:6px;text-align:center;&quot;&gt;&lt;b&gt;Contracts&lt;/b&gt;&lt;/p&gt;" style="align=left;overflow=fill;html=1;dropTarget=0;whiteSpace=wrap;" vertex="1" parent="1">
          <mxGeometry x="610" y="460" width="180" height="60" as="geometry" />
        </mxCell>
        <mxCell id="Xs1KsuPRkLYYs0-YTLQu-23" value="" style="shape=component;jettyWidth=8;jettyHeight=4;" vertex="1" parent="Xs1KsuPRkLYYs0-YTLQu-22">
          <mxGeometry x="1" width="20" height="20" relative="1" as="geometry">
            <mxPoint x="-24" y="4" as="offset" />
          </mxGeometry>
        </mxCell>
        <mxCell id="Xs1KsuPRkLYYs0-YTLQu-24" value="" style="endArrow=none;html=1;rounded=0;exitX=0;exitY=0.5;exitDx=0;exitDy=0;exitPerimeter=0;entryX=1;entryY=0.5;entryDx=0;entryDy=0;" edge="1" parent="1" source="Xs1KsuPRkLYYs0-YTLQu-3" target="Xs1KsuPRkLYYs0-YTLQu-17">
          <mxGeometry width="50" height="50" relative="1" as="geometry">
            <mxPoint x="140" y="540" as="sourcePoint" />
            <mxPoint x="300" y="490" as="targetPoint" />
          </mxGeometry>
        </mxCell>
        <mxCell id="Xs1KsuPRkLYYs0-YTLQu-25" value="" style="endArrow=none;html=1;rounded=0;entryX=0;entryY=0.5;entryDx=0;entryDy=0;exitX=1;exitY=0.5;exitDx=0;exitDy=0;exitPerimeter=0;" edge="1" parent="1" source="Xs1KsuPRkLYYs0-YTLQu-3" target="Xs1KsuPRkLYYs0-YTLQu-22">
          <mxGeometry width="50" height="50" relative="1" as="geometry">
            <mxPoint x="480" y="600" as="sourcePoint" />
            <mxPoint x="530" y="550" as="targetPoint" />
          </mxGeometry>
        </mxCell>
        <mxCell id="Xs1KsuPRkLYYs0-YTLQu-30" value="" style="shape=providedRequiredInterface;html=1;verticalLabelPosition=bottom;sketch=0;" vertex="1" parent="1">
          <mxGeometry x="675" y="330" width="50" height="50" as="geometry" />
        </mxCell>
        <mxCell id="Xs1KsuPRkLYYs0-YTLQu-31" value="&lt;p style=&quot;margin:0px;margin-top:6px;text-align:center;&quot;&gt;&amp;lt;&amp;lt;component&amp;gt;&amp;gt;&lt;/p&gt;&lt;p style=&quot;margin:0px;margin-top:6px;text-align:center;&quot;&gt;&lt;b&gt;Contract Managment UI&lt;/b&gt;&lt;/p&gt;" style="align=left;overflow=fill;html=1;dropTarget=0;whiteSpace=wrap;" vertex="1" parent="1">
          <mxGeometry x="610" y="220" width="180" height="60" as="geometry" />
        </mxCell>
        <mxCell id="Xs1KsuPRkLYYs0-YTLQu-32" value="" style="shape=component;jettyWidth=8;jettyHeight=4;" vertex="1" parent="Xs1KsuPRkLYYs0-YTLQu-31">
          <mxGeometry x="1" width="20" height="20" relative="1" as="geometry">
            <mxPoint x="-24" y="4" as="offset" />
          </mxGeometry>
        </mxCell>
        <mxCell id="Xs1KsuPRkLYYs0-YTLQu-33" value="" style="endArrow=none;html=1;rounded=0;exitX=0.5;exitY=0;exitDx=0;exitDy=0;entryX=0.5;entryY=0.9;entryDx=0;entryDy=0;entryPerimeter=0;" edge="1" parent="1" source="Xs1KsuPRkLYYs0-YTLQu-22" target="Xs1KsuPRkLYYs0-YTLQu-30">
          <mxGeometry width="50" height="50" relative="1" as="geometry">
            <mxPoint x="630" y="440" as="sourcePoint" />
            <mxPoint x="680" y="390" as="targetPoint" />
          </mxGeometry>
        </mxCell>
        <mxCell id="Xs1KsuPRkLYYs0-YTLQu-34" value="" style="endArrow=none;html=1;rounded=0;exitX=0.5;exitY=1;exitDx=0;exitDy=0;entryX=0.48;entryY=0.1;entryDx=0;entryDy=0;entryPerimeter=0;" edge="1" parent="1" source="Xs1KsuPRkLYYs0-YTLQu-31" target="Xs1KsuPRkLYYs0-YTLQu-30">
          <mxGeometry width="50" height="50" relative="1" as="geometry">
            <mxPoint x="450" y="540" as="sourcePoint" />
            <mxPoint x="500" y="490" as="targetPoint" />
          </mxGeometry>
        </mxCell>
        <mxCell id="Xs1KsuPRkLYYs0-YTLQu-35" value="&lt;p style=&quot;margin:0px;margin-top:6px;text-align:center;&quot;&gt;&amp;lt;&amp;lt;component&amp;gt;&amp;gt;&lt;/p&gt;&lt;p style=&quot;margin:0px;margin-top:6px;text-align:center;&quot;&gt;&lt;b&gt;Private Suppliers&lt;/b&gt;&lt;/p&gt;" style="align=left;overflow=fill;html=1;dropTarget=0;whiteSpace=wrap;" vertex="1" parent="1">
          <mxGeometry x="-260" y="555" width="180" height="60" as="geometry" />
        </mxCell>
        <mxCell id="Xs1KsuPRkLYYs0-YTLQu-36" value="" style="shape=component;jettyWidth=8;jettyHeight=4;" vertex="1" parent="Xs1KsuPRkLYYs0-YTLQu-35">
          <mxGeometry x="1" width="20" height="20" relative="1" as="geometry">
            <mxPoint x="-24" y="4" as="offset" />
          </mxGeometry>
        </mxCell>
        <mxCell id="Xs1KsuPRkLYYs0-YTLQu-37" style="edgeStyle=orthogonalEdgeStyle;rounded=0;orthogonalLoop=1;jettySize=auto;html=1;entryX=0;entryY=0.5;entryDx=0;entryDy=0;" edge="1" parent="1" target="Xs1KsuPRkLYYs0-YTLQu-38">
          <mxGeometry relative="1" as="geometry">
            <mxPoint x="-80" y="585" as="sourcePoint" />
          </mxGeometry>
        </mxCell>
        <mxCell id="Xs1KsuPRkLYYs0-YTLQu-38" value="" style="ellipse;whiteSpace=wrap;html=1;aspect=fixed;" vertex="1" parent="1">
          <mxGeometry y="570" width="30" height="30" as="geometry" />
        </mxCell>
        <mxCell id="Xs1KsuPRkLYYs0-YTLQu-39" value="&lt;b&gt;Private Suppliers Service&lt;/b&gt;" style="text;html=1;strokeColor=none;fillColor=none;align=center;verticalAlign=middle;whiteSpace=wrap;rounded=0;" vertex="1" parent="1">
          <mxGeometry x="-62.5" y="600" width="155" height="35" as="geometry" />
        </mxCell>
        <mxCell id="Xs1KsuPRkLYYs0-YTLQu-40" value="" style="whiteSpace=wrap;html=1;aspect=fixed;" vertex="1" parent="1">
          <mxGeometry x="250" y="572.5" width="25" height="25" as="geometry" />
        </mxCell>
        <mxCell id="Xs1KsuPRkLYYs0-YTLQu-41" value="" style="endArrow=open;endSize=12;dashed=1;html=1;rounded=0;entryX=0;entryY=0.5;entryDx=0;entryDy=0;" edge="1" parent="1" source="Xs1KsuPRkLYYs0-YTLQu-38" target="Xs1KsuPRkLYYs0-YTLQu-40">
          <mxGeometry x="0.0026" width="160" relative="1" as="geometry">
            <mxPoint x="60" y="585" as="sourcePoint" />
            <mxPoint x="220" y="585" as="targetPoint" />
            <Array as="points" />
            <mxPoint as="offset" />
          </mxGeometry>
        </mxCell>
        <mxCell id="Xs1KsuPRkLYYs0-YTLQu-42" value="Private Suppliers Port" style="text;html=1;strokeColor=none;fillColor=none;align=center;verticalAlign=middle;whiteSpace=wrap;rounded=0;" vertex="1" parent="1">
          <mxGeometry x="200" y="603.75" width="120" height="27.5" as="geometry" />
        </mxCell>
        <mxCell id="Xs1KsuPRkLYYs0-YTLQu-43" value="" style="shape=providedRequiredInterface;html=1;verticalLabelPosition=bottom;sketch=0;" vertex="1" parent="1">
          <mxGeometry x="470" y="560" width="50" height="50" as="geometry" />
        </mxCell>
        <mxCell id="Xs1KsuPRkLYYs0-YTLQu-44" value="" style="endArrow=none;html=1;rounded=0;exitX=1;exitY=1;exitDx=0;exitDy=0;entryX=0.2;entryY=0.19;entryDx=0;entryDy=0;entryPerimeter=0;" edge="1" parent="1" source="Xs1KsuPRkLYYs0-YTLQu-1" target="Xs1KsuPRkLYYs0-YTLQu-43">
          <mxGeometry width="50" height="50" relative="1" as="geometry">
            <mxPoint x="390" y="540" as="sourcePoint" />
            <mxPoint x="440" y="490" as="targetPoint" />
          </mxGeometry>
        </mxCell>
        <mxCell id="Xs1KsuPRkLYYs0-YTLQu-45" value="" style="endArrow=none;html=1;rounded=0;exitX=0;exitY=0.5;exitDx=0;exitDy=0;exitPerimeter=0;entryX=1;entryY=0.5;entryDx=0;entryDy=0;" edge="1" parent="1">
          <mxGeometry width="50" height="50" relative="1" as="geometry">
            <mxPoint x="465" y="585" as="sourcePoint" />
            <mxPoint x="280" y="585" as="targetPoint" />
          </mxGeometry>
        </mxCell>
        <mxCell id="Xs1KsuPRkLYYs0-YTLQu-46" value="" style="endArrow=none;html=1;rounded=0;entryX=0;entryY=1;entryDx=0;entryDy=0;exitX=1;exitY=0.5;exitDx=0;exitDy=0;exitPerimeter=0;" edge="1" parent="1" source="Xs1KsuPRkLYYs0-YTLQu-43" target="Xs1KsuPRkLYYs0-YTLQu-22">
          <mxGeometry width="50" height="50" relative="1" as="geometry">
            <mxPoint x="550" y="585" as="sourcePoint" />
            <mxPoint x="650" y="585" as="targetPoint" />
          </mxGeometry>
        </mxCell>
        <mxCell id="Xs1KsuPRkLYYs0-YTLQu-47" value="&lt;p style=&quot;margin:0px;margin-top:6px;text-align:center;&quot;&gt;&amp;lt;&amp;lt;component&amp;gt;&amp;gt;&lt;/p&gt;&lt;p style=&quot;margin:0px;margin-top:6px;text-align:center;&quot;&gt;&lt;b&gt;Stock Managment Engine&lt;/b&gt;&lt;/p&gt;" style="align=left;overflow=fill;html=1;dropTarget=0;whiteSpace=wrap;" vertex="1" parent="1">
          <mxGeometry x="-267.5" y="680" width="180" height="60" as="geometry" />
        </mxCell>
        <mxCell id="Xs1KsuPRkLYYs0-YTLQu-48" value="" style="shape=component;jettyWidth=8;jettyHeight=4;" vertex="1" parent="Xs1KsuPRkLYYs0-YTLQu-47">
          <mxGeometry x="1" width="20" height="20" relative="1" as="geometry">
            <mxPoint x="-24" y="4" as="offset" />
          </mxGeometry>
        </mxCell>
        <mxCell id="Xs1KsuPRkLYYs0-YTLQu-50" value="" style="shape=providedRequiredInterface;html=1;verticalLabelPosition=bottom;sketch=0;" vertex="1" parent="1">
          <mxGeometry x="42.5" y="685" width="50" height="50" as="geometry" />
        </mxCell>
        <mxCell id="Xs1KsuPRkLYYs0-YTLQu-51" value="" style="endArrow=none;html=1;rounded=0;exitX=1;exitY=0.5;exitDx=0;exitDy=0;entryX=0;entryY=0.5;entryDx=0;entryDy=0;entryPerimeter=0;" edge="1" parent="1" source="Xs1KsuPRkLYYs0-YTLQu-47" target="Xs1KsuPRkLYYs0-YTLQu-50">
          <mxGeometry width="50" height="50" relative="1" as="geometry">
            <mxPoint x="-37.5" y="720" as="sourcePoint" />
            <mxPoint x="12.5" y="670" as="targetPoint" />
          </mxGeometry>
        </mxCell>
        <mxCell id="Xs1KsuPRkLYYs0-YTLQu-52" value="&lt;p style=&quot;margin:0px;margin-top:6px;text-align:center;&quot;&gt;&amp;lt;&amp;lt;component&amp;gt;&amp;gt;&lt;/p&gt;&lt;p style=&quot;margin:0px;margin-top:6px;text-align:center;&quot;&gt;&lt;b&gt;Stock Managment UI&lt;/b&gt;&lt;/p&gt;" style="align=left;overflow=fill;html=1;dropTarget=0;whiteSpace=wrap;" vertex="1" parent="1">
          <mxGeometry x="-27.5" y="810" width="180" height="60" as="geometry" />
        </mxCell>
        <mxCell id="Xs1KsuPRkLYYs0-YTLQu-53" value="" style="shape=component;jettyWidth=8;jettyHeight=4;" vertex="1" parent="Xs1KsuPRkLYYs0-YTLQu-52">
          <mxGeometry x="1" width="20" height="20" relative="1" as="geometry">
            <mxPoint x="-24" y="4" as="offset" />
          </mxGeometry>
        </mxCell>
        <mxCell id="Xs1KsuPRkLYYs0-YTLQu-54" value="" style="endArrow=none;html=1;rounded=0;entryX=0.5;entryY=0;entryDx=0;entryDy=0;exitX=0.4;exitY=0.9;exitDx=0;exitDy=0;exitPerimeter=0;" edge="1" parent="1" source="Xs1KsuPRkLYYs0-YTLQu-50" target="Xs1KsuPRkLYYs0-YTLQu-52">
          <mxGeometry width="50" height="50" relative="1" as="geometry">
            <mxPoint x="72.5" y="760" as="sourcePoint" />
            <mxPoint x="172.5" y="740" as="targetPoint" />
          </mxGeometry>
        </mxCell>
        <mxCell id="Xs1KsuPRkLYYs0-YTLQu-57" value="&lt;br&gt;&lt;b style=&quot;border-color: var(--border-color); color: rgb(0, 0, 0); font-family: Helvetica; font-size: 12px; font-style: normal; font-variant-ligatures: normal; font-variant-caps: normal; letter-spacing: normal; orphans: 2; text-align: center; text-indent: 0px; text-transform: none; widows: 2; word-spacing: 0px; -webkit-text-stroke-width: 0px; background-color: rgb(251, 251, 251); text-decoration-thickness: initial; text-decoration-style: initial; text-decoration-color: initial;&quot;&gt;Stock Managment Engine Service&lt;/b&gt;" style="text;html=1;strokeColor=none;fillColor=none;align=center;verticalAlign=middle;whiteSpace=wrap;rounded=0;" vertex="1" parent="1">
          <mxGeometry x="-47.5" y="753" width="210" height="30" as="geometry" />
        </mxCell>
        <mxCell id="Xs1KsuPRkLYYs0-YTLQu-58" value="&lt;p style=&quot;margin:0px;margin-top:6px;text-align:center;&quot;&gt;&amp;lt;&amp;lt;component&amp;gt;&amp;gt;&lt;/p&gt;&lt;p style=&quot;margin:0px;margin-top:6px;text-align:center;&quot;&gt;&lt;b&gt;Stock Managment UI&lt;/b&gt;&lt;/p&gt;" style="align=left;overflow=fill;html=1;dropTarget=0;whiteSpace=wrap;" vertex="1" parent="1">
          <mxGeometry x="397.5" y="680" width="180" height="60" as="geometry" />
        </mxCell>
        <mxCell id="Xs1KsuPRkLYYs0-YTLQu-59" value="" style="shape=component;jettyWidth=8;jettyHeight=4;" vertex="1" parent="Xs1KsuPRkLYYs0-YTLQu-58">
          <mxGeometry x="1" width="20" height="20" relative="1" as="geometry">
            <mxPoint x="-24" y="4" as="offset" />
          </mxGeometry>
        </mxCell>
        <mxCell id="Xs1KsuPRkLYYs0-YTLQu-60" value="" style="shape=providedRequiredInterface;html=1;verticalLabelPosition=bottom;sketch=0;" vertex="1" parent="1">
          <mxGeometry x="677.5" y="685" width="50" height="50" as="geometry" />
        </mxCell>
        <mxCell id="Xs1KsuPRkLYYs0-YTLQu-61" value="" style="endArrow=none;html=1;rounded=0;exitX=1;exitY=0.5;exitDx=0;exitDy=0;entryX=0.56;entryY=1.04;entryDx=0;entryDy=0;entryPerimeter=0;" edge="1" parent="1" source="Xs1KsuPRkLYYs0-YTLQu-52" target="Xs1KsuPRkLYYs0-YTLQu-60">
          <mxGeometry width="50" height="50" relative="1" as="geometry">
            <mxPoint x="282.5" y="840" as="sourcePoint" />
            <mxPoint x="332.5" y="790" as="targetPoint" />
            <Array as="points">
              <mxPoint x="702.5" y="840" />
            </Array>
          </mxGeometry>
        </mxCell>
        <mxCell id="Xs1KsuPRkLYYs0-YTLQu-62" value="" style="endArrow=none;html=1;rounded=0;exitX=1;exitY=0.5;exitDx=0;exitDy=0;entryX=0;entryY=0.5;entryDx=0;entryDy=0;entryPerimeter=0;" edge="1" parent="1" source="Xs1KsuPRkLYYs0-YTLQu-58" target="Xs1KsuPRkLYYs0-YTLQu-60">
          <mxGeometry width="50" height="50" relative="1" as="geometry">
            <mxPoint x="622.5" y="700" as="sourcePoint" />
            <mxPoint x="672.5" y="650" as="targetPoint" />
          </mxGeometry>
        </mxCell>
        <mxCell id="Xs1KsuPRkLYYs0-YTLQu-63" value="" style="endArrow=none;html=1;rounded=0;exitX=0.5;exitY=1;exitDx=0;exitDy=0;entryX=0.476;entryY=0.036;entryDx=0;entryDy=0;entryPerimeter=0;" edge="1" parent="1" source="Xs1KsuPRkLYYs0-YTLQu-22" target="Xs1KsuPRkLYYs0-YTLQu-60">
          <mxGeometry width="50" height="50" relative="1" as="geometry">
            <mxPoint x="650" y="590" as="sourcePoint" />
            <mxPoint x="750" y="590" as="targetPoint" />
          </mxGeometry>
        </mxCell>
      </root>
    </mxGraphModel>
  </diagram>
</mxfile>
